<?xml version="1.0" standalone="no"?>
<!DOCTYPE svg PUBLIC "-//W3C//DTD SVG 20010904//EN"
 "http://www.w3.org/TR/2001/REC-SVG-20010904/DTD/svg10.dtd">
<svg version="1.0" xmlns="http://www.w3.org/2000/svg"
 width="700.000000pt" height="700.000000pt" viewBox="0 0 700.000000 700.000000"
 preserveAspectRatio="xMidYMid meet">
<metadata>
Created by potrace 1.11, written by Peter Selinger 2001-2013
</metadata>
<g transform="translate(0.000000,700.000000) scale(0.100000,-0.100000)"
fill="#000000" stroke="none">
<path d="M4261 6989 c-76 -14 -141 -40 -301 -117 -367 -176 -542 -261 -870
-419 -85 -42 -211 -102 -280 -136 -587 -282 -627 -305 -727 -426 -62 -76 -136
-220 -154 -302 -12 -56 -12 -57 -69 -82 -73 -31 -152 -83 -210 -139 -47 -45
-130 -149 -130 -163 0 -5 -6 -16 -14 -24 -20 -22 -74 -185 -80 -241 -2 -25 -5
-181 -5 -346 l-1 -302 -36 -7 c-73 -13 -179 -60 -263 -115 -171 -112 -290
-283 -336 -480 -15 -63 -18 -133 -21 -455 -1 -209 -3 -387 -3 -396 -1 -9 -22
-22 -53 -34 -127 -44 -273 -168 -349 -295 -185 -312 -97 -727 198 -931 45 -31
181 -99 198 -99 7 0 10 -132 11 -398 0 -372 1 -402 21 -479 66 -254 253 -462
494 -553 139 -51 31 -49 2504 -49 2236 0 2302 1 2378 20 155 38 309 137 404
260 71 91 104 157 135 269 21 75 21 78 23 2210 2 2333 5 2210 -56 2357 -94
225 -293 386 -540 439 -47 9 -147 13 -374 14 l-230 0 -59 123 c-116 242 -127
262 -153 285 -20 19 -35 23 -66 20 l-39 -4 -51 103 -50 102 26 27 c36 35 38
72 10 134 -115 253 -167 343 -241 418 -91 92 -166 141 -277 179 -113 40 -257
52 -364 32z"/>
</g>
</svg>
